<?xml version="1.0" standalone="no"?>
<!DOCTYPE svg PUBLIC "-//W3C//DTD SVG 20010904//EN"
 "http://www.w3.org/TR/2001/REC-SVG-20010904/DTD/svg10.dtd">
<svg version="1.0" xmlns="http://www.w3.org/2000/svg"
 width="512.000000pt" height="512.000000pt" viewBox="0 0 512.000000 512.000000"
 preserveAspectRatio="xMidYMid meet">
<metadata>
Created by potrace 1.14, written by Peter Selinger 2001-2017
</metadata>
<g transform="translate(0.000000,512.000000) scale(0.100000,-0.100000)"
fill="#000000" stroke="none">
<path d="M2408 4545 c-1 -2 -20 -6 -42 -9 -91 -15 -136 -53 -228 -191 -36 -55
-76 -110 -87 -122 -12 -13 -19 -23 -16 -23 6 0 -35 -49 -81 -97 -23 -24 -41
-33 -65 -34 -19 0 -41 -2 -49 -3 -8 -2 -37 -6 -65 -10 -27 -3 -61 -8 -75 -10
-14 -3 -38 -7 -55 -10 -60 -10 -85 -17 -176 -46 -51 -17 -97 -35 -103 -39 -6
-5 -13 -10 -16 -10 -20 -3 -90 -36 -90 -43 0 -4 -4 -8 -9 -8 -19 0 -107 -65
-158 -117 -29 -29 -57 -53 -62 -53 -15 0 -61 -132 -63 -180 -3 -88 39 -179
131 -280 l40 -44 -37 -30 c-63 -50 -163 -159 -177 -194 -8 -18 -20 -39 -27
-47 -29 -32 -38 -45 -33 -45 5 0 -23 -49 -35 -60 -3 -3 -12 -19 -21 -35 -40
-78 -65 -121 -74 -127 -5 -4 -7 -8 -2 -8 4 0 -4 -18 -18 -40 -14 -22 -25 -42
-25 -44 0 -3 -15 -38 -34 -78 -83 -178 -106 -230 -106 -239 0 -6 -7 -24 -16
-40 -8 -17 -17 -40 -19 -50 -7 -36 -29 -89 -37 -89 -4 0 -5 -7 -2 -15 4 -8 0
-23 -7 -32 -8 -9 -13 -18 -11 -20 3 -4 -9 -55 -17 -68 -3 -5 -6 -14 -8 -20 -8
-37 -12 -55 -24 -95 -6 -25 -13 -52 -14 -60 -1 -8 -10 -50 -19 -93 -22 -106
-32 -286 -17 -314 10 -21 13 -36 26 -133 9 -69 7 -64 48 -170 12 -30 22 -59
22 -63 0 -4 5 -11 12 -15 6 -4 13 -14 15 -22 2 -8 8 -20 13 -26 6 -6 17 -22
25 -34 8 -12 21 -29 28 -36 7 -8 10 -14 7 -14 -4 0 14 -18 39 -41 26 -23 43
-46 39 -53 -3 -6 -3 -8 1 -4 7 6 38 -17 88 -65 10 -9 23 -17 28 -17 6 0 13 -7
16 -15 4 -8 10 -13 14 -10 5 3 13 -3 19 -12 6 -10 11 -14 11 -10 0 4 24 -7 52
-26 52 -32 131 -69 293 -137 60 -25 319 -108 390 -126 6 -1 66 -16 135 -34 69
-17 139 -34 155 -37 17 -2 62 -11 100 -19 69 -15 184 -35 280 -50 28 -4 57 -9
65 -10 20 -4 340 -42 415 -49 33 -3 202 -8 375 -10 281 -4 325 -3 411 14 53
11 112 26 132 34 19 9 38 13 41 9 3 -3 6 0 6 6 0 7 5 12 11 12 16 0 98 39 144
68 22 15 43 25 48 24 4 -1 7 2 7 6 0 10 51 37 63 33 5 -1 6 3 3 8 -4 5 11 20
31 32 21 13 48 33 60 44 62 59 166 150 174 153 5 2 9 8 9 13 0 5 18 28 39 51
57 61 64 69 91 108 13 19 28 38 32 41 12 8 98 149 98 160 0 5 5 9 12 9 6 0 9
3 5 6 -3 4 0 18 7 33 15 28 59 157 71 206 8 30 9 39 19 105 7 46 8 298 1 330
-3 14 -9 59 -15 100 -5 41 -17 102 -25 135 -9 33 -18 69 -19 80 -2 11 -6 27
-9 35 -5 14 -73 248 -81 280 -2 8 -10 29 -17 45 -7 17 -13 32 -14 35 -1 3 -7
17 -13 33 -7 15 -14 38 -16 50 -8 42 -58 155 -88 198 -9 15 -22 38 -28 53 -9
25 -8 26 18 24 33 -2 55 9 46 24 -4 6 -3 8 3 5 8 -5 35 17 40 33 1 3 7 19 13
35 7 17 13 37 15 45 2 8 4 17 5 20 1 3 2 13 1 23 -1 9 3 17 9 17 7 0 9 7 6 17
-4 10 -4 14 0 10 7 -6 33 22 31 33 -1 5 24 38 49 64 13 14 -2 76 -18 76 -6 0
-9 3 -5 6 3 4 1 12 -6 18 -23 23 -122 74 -157 81 -19 4 -39 10 -43 12 -5 3 17
27 47 55 90 80 123 169 87 235 -5 11 -7 23 -4 27 3 3 1 6 -5 6 -7 0 -12 6 -12
14 0 18 -111 133 -160 166 -19 13 -38 28 -41 33 -3 5 -10 8 -15 8 -5 0 -20 10
-34 21 -14 12 -27 21 -30 21 -3 -1 -20 7 -37 17 l-33 19 -1 118 c-1 65 -3 128
-4 140 -2 23 -42 94 -59 105 -6 4 -24 17 -40 30 -16 13 -32 22 -35 22 -3 -1
-26 9 -51 23 -25 14 -45 24 -45 23 0 -4 -89 23 -100 30 -10 7 -53 20 -85 26
-8 1 -33 8 -55 14 -76 22 -239 62 -305 74 -14 3 -36 7 -50 10 -37 7 -80 15
-119 22 -18 3 -43 8 -55 11 -11 2 -28 5 -36 5 -8 0 -40 4 -70 9 -56 9 -102 15
-200 24 -68 7 -307 15 -312 10z"/>
</g>
</svg>
